HIERARCHY
ROOT Hips
{
    OFFSET 0.000000 0.000000 0.000000
    CHANNELS 6 Xposition Yposition Zposition Zrotation Xrotation Yrotation
    JOINT Spine
    {
        OFFSET -0.000000 8.505030 0.000000
        CHANNELS 3 Zrotation Xrotation Yrotation
        JOINT Spine1
        {
            OFFSET -0.000000 25.070629 0.000000
            CHANNELS 3 Zrotation Xrotation Yrotation
            JOINT Neck
            {
                OFFSET -0.000000 24.967667 2.269788
                CHANNELS 3 Zrotation Xrotation Yrotation
                JOINT Head
                {
                    OFFSET -0.000000 14.520781 -2.074397
                    CHANNELS 3 Zrotation Xrotation Yrotation
                    End Site
                    {
                        OFFSET -0.000000 25.929966 0.000000
                    }
                }
            }
            JOINT LeftShoulder
            {
                OFFSET 4.117346 22.983784 -0.389865
                CHANNELS 3 Zrotation Xrotation Yrotation
                JOINT LeftArm
                {
                    OFFSET 11.957758 0.000000 0.000000
                    CHANNELS 3 Zrotation Xrotation Yrotation
                    JOINT LeftForeArm
                    {
                        OFFSET 31.907600 0.000000 0.000000
                        CHANNELS 3 Zrotation Xrotation Yrotation
                        JOINT LeftHand
                        {
                            OFFSET 28.601147 0.000000 0.000000
                            CHANNELS 3 Zrotation Xrotation Yrotation
                            End Site
                            {
                                OFFSET 15.557981 0.000000 0.000000
                            }
                        }
                    }
                }
            }
            JOINT RightShoulder
            {
                OFFSET -4.061940 22.983784 -0.389865
                CHANNELS 3 Zrotation Xrotation Yrotation
                JOINT RightArm
                {
                    OFFSET -11.957758 0.000000 0.000000
                    CHANNELS 3 Zrotation Xrotation Yrotation
                    JOINT RightForeArm
                    {
                        OFFSET -31.907600 0.000000 0.000000
                        CHANNELS 3 Zrotation Xrotation Yrotation
                        JOINT RightHand
                        {
                            OFFSET -28.601147 0.000000 0.000000
                            CHANNELS 3 Zrotation Xrotation Yrotation
                            End Site
                            {
                                OFFSET -15.557981 0.000000 0.000000
                            }
                        }
                    }
                }
            }
        }
    }
    JOINT LeftUpLeg
    {
        OFFSET 10.371986 0.000000 0.000000
        CHANNELS 3 Zrotation Xrotation Yrotation
        JOINT LeftLeg
        {
            OFFSET -0.000000 -42.486427 0.000000
            CHANNELS 3 Zrotation Xrotation Yrotation
            JOINT LeftFoot
            {
                OFFSET -0.000000 -48.322342 0.000000
                CHANNELS 3 Zrotation Xrotation Yrotation
                JOINT LeftToeBase
                {
                    OFFSET -0.000000 -6.741791 15.557981
                    CHANNELS 3 Zrotation Xrotation Yrotation
                    End Site
                    {
                        OFFSET -0.000000 0.000000 4.148795
                    }
                }
            }
        }
    }
    JOINT RightUpLeg
    {
        OFFSET -10.371986 0.000000 0.000000
        CHANNELS 3 Zrotation Xrotation Yrotation
        JOINT RightLeg
        {
            OFFSET -0.000000 -42.486427 0.000000
            CHANNELS 3 Zrotation Xrotation Yrotation
            JOINT RightFoot
            {
                OFFSET -0.000000 -48.322342 0.000000
                CHANNELS 3 Zrotation Xrotation Yrotation
                JOINT RightToeBase
                {
                    OFFSET -0.000000 -6.741791 15.557981
                    CHANNELS 3 Zrotation Xrotation Yrotation
                    End Site
                    {
                        OFFSET -0.000000 0.000000 4.148795
                    }
                }
            }
        }
    }
}
MOTION
Frames:    9
Frame Time:    0.008333
-209.583801    99.768028    65.255043    0.418160    -2.155247    85.266472    1.114579    -7.569019    1.394865    1.173958    -6.430652    1.387110    -7.023192    31.835468    -7.997486    11.755381    5.501094    -8.306590    13.259531    1.419137    -14.006780    -9.558376    2.399336    -3.447373    -4.555853    -2.307369    27.449375    -0.762658    -1.170001    -3.701306    -15.709517    3.091649    -6.411612    12.078843    -1.840861    19.291973    3.831572    2.324619    -21.041714    1.194592    2.988887    -4.493160    5.787357    6.911609    5.001470    -1.893771    3.853194    7.306693    -6.458989    -6.050032    8.250050    0.000000    0.000000    0.000000    0.112714    5.898753    6.599710    1.160787    1.688393    -1.636893    4.623466    -3.695801    -13.527398    0.000000    0.000000    0.000000    
-209.574295    99.765602    65.255287    0.410283    -2.150289    85.288536    1.115544    -7.582748    1.396250    1.168198    -6.409633    1.387768    -6.794881    31.909372    -7.921370    11.496632    5.395058    -8.210571    13.256186    1.390744    -14.002032    -9.579701    2.412811    -3.447149    -4.514533    -2.359552    27.449627    -0.817207    -1.230504    -3.709140    -15.711845    3.077917    -6.425460    12.115490    -1.920484    19.278046    3.857152    2.331856    -21.052094    1.067719    3.006105    -4.506146    5.790740    6.913731    4.944733    -1.905119    3.836756    7.331306    -6.463886    -6.055073    8.260076    0.000000    0.000000    0.000000    0.090691    5.906944    6.884840    1.204737    1.668143    -1.879318    4.468721    -3.706309    -13.567181    0.000000    0.000000    0.000000    
-209.575241    99.760902    65.262772    0.391244    -2.145659    85.311249    1.096972    -7.588550    1.396299    1.185485    -6.408015    1.389923    -6.521371    31.607012    -8.019294    11.037337    5.923131    -8.344333    13.258464    1.393760    -14.019326    -9.558741    2.307441    -3.437599    -4.548965    -2.351347    27.479343    -0.940405    -1.208399    -3.736848    -15.712017    3.111778    -6.459862    12.149252    -2.013279    19.297632    3.836473    2.298721    -21.061968    1.061502    2.969290    -4.555159    5.799537    6.870945    4.994987    -1.901951    3.872081    7.282799    -6.565811    -6.136275    8.247338    0.000000    0.000000    0.000000    0.099832    5.862955    6.846806    1.181011    1.690540    -1.802529    4.559765    -3.706796    -13.607324    0.000000    0.000000    0.000000    
-209.571335    99.759628    65.258202    0.384067    -2.133898    85.348328    1.091497    -7.605242    1.388193    1.183444    -6.368318    1.381496    -6.295523    31.469246    -7.941509    10.718917    6.101718    -8.265060    13.247062    1.375714    -14.009473    -9.588025    2.354364    -3.412844    -4.481901    -2.411098    27.440645    -1.051591    -1.282769    -3.717790    -15.635308    3.035728    -6.445199    12.036635    -1.959694    19.231705    3.887718    2.300038    -21.066317    1.107587    2.978272    -4.575571    5.786295    6.847649    4.977366    -1.892285    3.887638    7.271515    -6.430986    -6.073353    8.214203    0.000000    0.000000    0.000000    0.087508    5.837411    6.775686    1.207462    1.764930    -1.830846    4.501945    -3.770952    -13.570547    0.000000    0.000000    0.000000    
-209.555313    99.762764    65.247383    0.412813    -2.124765    85.385338    1.115497    -7.592819    1.378533    1.140146    -6.330736    1.367588    -6.151883    31.491608    -7.825093    10.559631    6.085746    -8.135859    13.262003    1.318410    -13.993153    -9.619804    2.383353    -3.396845    -4.457814    -2.433011    27.443430    -1.335913    -1.299939    -3.829946    -15.661519    2.997846    -6.455665    12.101478    -1.985644    19.237841    3.896626    2.324915    -21.104418    1.166257    3.003499    -4.606478    5.766554    6.881547    4.924257    -1.887702    3.873560    7.304662    -6.453771    -6.061652    8.212054    0.000000    0.000000    0.000000    0.082416    5.891705    6.659394    1.183732    1.739160    -1.799850    4.578194    -3.757991    -13.523836    0.000000    0.000000    0.000000    
-209.549423    99.758904    65.247932    0.406334    -2.124034    85.395294    1.117094    -7.618402    1.381182    1.152730    -6.274075    1.369999    -5.913018    31.507717    -7.787434    10.220320    6.055251    -8.088839    13.249366    1.305535    -13.981935    -9.620507    2.375789    -3.382413    -4.455966    -2.466863    27.432096    -1.379067    -1.333228    -3.831799    -15.696065    2.997727    -6.476122    12.151433    -2.002683    19.256775    3.890589    2.322042    -21.151978    1.238192    2.998610    -4.578608    5.765911    6.867227    4.965782    -1.879560    3.892132    7.250634    -6.442928    -6.072498    8.211800    0.000000    0.000000    0.000000    0.071342    5.855154    6.689228    1.209507    1.800014    -1.812408    4.575655    -3.796663    -13.540141    0.000000    0.000000    0.000000    
-209.544250    99.757439    65.244041    0.412840    -2.111586    85.420914    1.114929    -7.615148    1.375566    1.137552    -6.253862    1.363497    -5.795264    31.569920    -7.697371    10.114176    6.049695    -7.989656    13.263773    1.280112    -13.984344    -9.639472    2.355689    -3.362737    -4.474460    -2.463787    27.443768    -1.310398    -1.327955    -3.789925    -15.684373    3.011856    -6.478514    12.166207    -2.070171    19.262266    3.916763    2.315343    -21.189886    1.269405    2.996938    -4.573598    5.750222    6.867199    4.961537    -1.872809    3.899439    7.253596    -6.447039    -6.072622    8.183966    0.000000    0.000000    0.000000    0.052731    5.864022    6.684826    1.218322    1.808767    -1.781266    4.501133    -3.817946    -13.572242    0.000000    0.000000    0.000000    
-209.547134    99.751366    65.251015    0.392116    -2.111906    85.422432    1.101016    -7.625681    1.376290    1.169286    -6.252561    1.366810    -5.643260    31.637785    -7.569550    9.920890    5.996340    -7.849707    13.231934    1.388270    -14.027409    -9.602283    2.266788    -3.298322    -4.482690    -2.468659    27.429672    -1.393512    -1.328617    -3.794045    -15.660876    3.068899    -6.476561    12.154018    -2.163735    19.280624    3.939312    2.334082    -21.241385    1.325220    3.019646    -4.564910    5.763892    6.828738    5.023200    -1.879225    3.931424    7.219709    -6.436917    -6.096389    8.159424    0.000000    0.000000    0.000000    0.063021    5.827989    6.690393    1.216111    1.821343    -1.914759    4.416899    -3.805198    -13.439350    0.000000    0.000000    0.000000    
-209.534317    99.755547    65.241562    0.414369    -2.107894    85.447983    1.111711    -7.625731    1.369813    1.166711    -6.204411    1.358908    -5.470454    31.576311    -7.504160    9.630749    6.118069    -7.787887    13.221791    1.359945    -14.001637    -9.622422    2.293714    -3.306404    -4.484496    -2.475896    27.441149    -1.438154    -1.333754    -3.769563    -15.713219    2.993889    -6.475759    12.241022    -2.223502    19.221170    3.943974    2.411206    -21.194159    1.365581    3.093595    -4.626945    5.747992    6.858742    4.992533    -1.867339    3.913436    7.236625    -6.569549    -6.135946    8.164462    0.000000    0.000000    0.000000    0.049791    5.863570    6.685078    1.223884    1.825097    -1.806415    4.396830    -3.821016    -13.573360    0.000000    0.000000    0.000000    
